<svg width="428" height="234" viewBox="0 0 428 234" fill="none" xmlns="http://www.w3.org/2000/svg">
<path opacity="0.5" fill-rule="evenodd" clip-rule="evenodd" d="M401 20H83C78.0294 20 74 24.0294 74 29V209C74 213.971 78.0294 218 83 218H401C405.971 218 410 213.971 410 209V29C410 24.0294 405.971 20 401 20ZM83 18C76.9249 18 72 22.9249 72 29V209C72 215.075 76.9249 220 83 220H401C407.075 220 412 215.075 412 209V29C412 22.9249 407.075 18 401 18H83Z" fill="#AEBFCF"/>
<path d="M131.468 10.5561C135.02 10.5561 137.648 11.2521 139.352 12.6441C141.056 14.0121 141.908 15.8841 141.908 18.2601C141.908 19.7721 141.536 21.1401 140.792 22.3641C140.048 23.5881 138.932 24.5601 137.444 25.2801C135.956 26.0001 134.12 26.3601 131.936 26.3601C130.136 26.3601 128.396 26.1081 126.716 25.6041C125.036 25.0761 123.62 24.3561 122.468 23.4441L124.448 19.8081C125.384 20.5761 126.5 21.1881 127.796 21.6441C129.116 22.0761 130.472 22.2921 131.864 22.2921C133.52 22.2921 134.816 21.9561 135.752 21.2841C136.712 20.5881 137.192 19.6401 137.192 18.4401C137.192 17.1441 136.676 16.1721 135.644 15.5241C134.636 14.8521 132.896 14.5161 130.424 14.5161H124.34L125.636 0.800095H140.432V4.7241H129.596L129.056 10.5561H131.468Z" fill="#AEBFCF"/>
<path d="M149.872 14.3721C148.072 14.3721 146.62 13.7361 145.516 12.4641C144.412 11.1921 143.86 9.5241 143.86 7.4601C143.86 5.3961 144.412 3.7281 145.516 2.45609C146.62 1.1841 148.072 0.548096 149.872 0.548096C151.672 0.548096 153.124 1.1841 154.228 2.45609C155.356 3.70409 155.92 5.3721 155.92 7.4601C155.92 9.5481 155.356 11.2281 154.228 12.5001C153.124 13.7481 151.672 14.3721 149.872 14.3721ZM164.992 0.800095H168.52L151.312 26.0001H147.784L164.992 0.800095ZM149.872 11.8521C150.856 11.8521 151.612 11.4681 152.14 10.7001C152.692 9.9321 152.968 8.8521 152.968 7.4601C152.968 6.0681 152.692 4.9881 152.14 4.2201C151.612 3.4521 150.856 3.0681 149.872 3.0681C148.936 3.0681 148.18 3.4641 147.604 4.25609C147.052 5.0241 146.776 6.0921 146.776 7.4601C146.776 8.8281 147.052 9.90809 147.604 10.7001C148.18 11.4681 148.936 11.8521 149.872 11.8521ZM166.396 26.2521C164.596 26.2521 163.144 25.6161 162.04 24.3441C160.936 23.0721 160.384 21.4041 160.384 19.3401C160.384 17.2761 160.936 15.6081 162.04 14.3361C163.144 13.0641 164.596 12.4281 166.396 12.4281C168.196 12.4281 169.648 13.0641 170.752 14.3361C171.88 15.6081 172.444 17.2761 172.444 19.3401C172.444 21.4041 171.88 23.0721 170.752 24.3441C169.648 25.6161 168.196 26.2521 166.396 26.2521ZM166.396 23.7321C167.356 23.7321 168.112 23.3481 168.664 22.5801C169.216 21.7881 169.492 20.7081 169.492 19.3401C169.492 17.9721 169.216 16.9041 168.664 16.1361C168.112 15.3441 167.356 14.9481 166.396 14.9481C165.436 14.9481 164.68 15.3321 164.128 16.1001C163.576 16.8681 163.3 17.9481 163.3 19.3401C163.3 20.7321 163.576 21.8121 164.128 22.5801C164.68 23.3481 165.436 23.7321 166.396 23.7321Z" fill="#AEBFCF"/>
<path d="M312.592 38.6001V89.0001H303.232V46.4481H292.576V38.6001H312.592Z" fill="#AEBFCF"/>
<path d="M343.614 89.7201C339.582 89.7201 335.982 88.7121 332.814 86.6961C329.646 84.6321 327.15 81.6561 325.326 77.7681C323.502 73.8321 322.59 69.1761 322.59 63.8001C322.59 58.4241 323.502 53.7921 325.326 49.9041C327.15 45.9681 329.646 42.9921 332.814 40.9761C335.982 38.9121 339.582 37.8801 343.614 37.8801C347.646 37.8801 351.246 38.9121 354.414 40.9761C357.63 42.9921 360.15 45.9681 361.974 49.9041C363.798 53.7921 364.71 58.4241 364.71 63.8001C364.71 69.1761 363.798 73.8321 361.974 77.7681C360.15 81.6561 357.63 84.6321 354.414 86.6961C351.246 88.7121 347.646 89.7201 343.614 89.7201ZM343.614 81.5841C347.214 81.5841 350.046 80.0961 352.11 77.1201C354.222 74.1441 355.278 69.7041 355.278 63.8001C355.278 57.8961 354.222 53.4561 352.11 50.4801C350.046 47.5041 347.214 46.0161 343.614 46.0161C340.062 46.0161 337.23 47.5041 335.118 50.4801C333.054 53.4561 332.022 57.8961 332.022 63.8001C332.022 69.7041 333.054 74.1441 335.118 77.1201C337.23 80.0961 340.062 81.5841 343.614 81.5841Z" fill="#AEBFCF"/>
<path d="M382.267 65.7441C378.667 65.7441 375.763 64.4721 373.555 61.9281C371.347 59.3841 370.243 56.0481 370.243 51.9201C370.243 47.7921 371.347 44.4561 373.555 41.9121C375.763 39.3681 378.667 38.0961 382.267 38.0961C385.867 38.0961 388.771 39.3681 390.979 41.9121C393.235 44.4081 394.363 47.7441 394.363 51.9201C394.363 56.0961 393.235 59.4561 390.979 62.0001C388.771 64.4961 385.867 65.7441 382.267 65.7441ZM412.507 38.6001H419.563L385.147 89.0001H378.091L412.507 38.6001ZM382.267 60.7041C384.235 60.7041 385.747 59.9361 386.803 58.4001C387.907 56.8641 388.459 54.7041 388.459 51.9201C388.459 49.1361 387.907 46.9761 386.803 45.4401C385.747 43.9041 384.235 43.1361 382.267 43.1361C380.395 43.1361 378.883 43.9281 377.731 45.5121C376.627 47.0481 376.075 49.1841 376.075 51.9201C376.075 54.6561 376.627 56.8161 377.731 58.4001C378.883 59.9361 380.395 60.7041 382.267 60.7041ZM415.315 89.5041C411.715 89.5041 408.811 88.2321 406.603 85.6881C404.395 83.1441 403.291 79.8081 403.291 75.6801C403.291 71.5521 404.395 68.2161 406.603 65.6721C408.811 63.1281 411.715 61.8561 415.315 61.8561C418.915 61.8561 421.819 63.1281 424.027 65.6721C426.283 68.2161 427.411 71.5521 427.411 75.6801C427.411 79.8081 426.283 83.1441 424.027 85.6881C421.819 88.2321 418.915 89.5041 415.315 89.5041ZM415.315 84.4641C417.235 84.4641 418.747 83.6961 419.851 82.1601C420.955 80.5761 421.507 78.4161 421.507 75.6801C421.507 72.9441 420.955 70.8081 419.851 69.2721C418.747 67.6881 417.235 66.8961 415.315 66.8961C413.395 66.8961 411.883 67.6641 410.779 69.2001C409.675 70.7361 409.123 72.8961 409.123 75.6801C409.123 78.4641 409.675 80.6241 410.779 82.1601C411.883 83.6961 413.395 84.4641 415.315 84.4641Z" fill="#AEBFCF"/>
<path d="M27.456 117.8V185H14.976V128.264H0.768005V117.8H27.456Z" fill="#AEBFCF"/>
<path d="M61.8105 143.816C71.2825 143.816 78.2905 145.672 82.8345 149.384C87.3785 153.032 89.6505 158.024 89.6505 164.36C89.6505 168.392 88.6585 172.04 86.6745 175.304C84.6905 178.568 81.7145 181.16 77.7465 183.08C73.7785 185 68.8825 185.96 63.0585 185.96C58.2585 185.96 53.6185 185.288 49.1385 183.944C44.6585 182.536 40.8825 180.616 37.8105 178.184L43.0905 168.488C45.5865 170.536 48.5625 172.168 52.0185 173.384C55.5385 174.536 59.1545 175.112 62.8665 175.112C67.2825 175.112 70.7385 174.216 73.2345 172.424C75.7945 170.568 77.0745 168.04 77.0745 164.84C77.0745 161.384 75.6985 158.792 72.9465 157.064C70.2585 155.272 65.6185 154.376 59.0265 154.376H42.8025L46.2585 117.8H85.7145V128.264H56.8185L55.3785 143.816H61.8105Z" fill="#AEBFCF"/>
<path d="M110.888 153.992C106.088 153.992 102.216 152.296 99.2715 148.904C96.3275 145.512 94.8555 141.064 94.8555 135.56C94.8555 130.056 96.3275 125.608 99.2715 122.216C102.216 118.824 106.088 117.128 110.888 117.128C115.688 117.128 119.56 118.824 122.504 122.216C125.512 125.544 127.016 129.992 127.016 135.56C127.016 141.128 125.512 145.608 122.504 149C119.56 152.328 115.688 153.992 110.888 153.992ZM151.208 117.8H160.616L114.728 185H105.32L151.208 117.8ZM110.888 147.272C113.512 147.272 115.528 146.248 116.936 144.2C118.408 142.152 119.144 139.272 119.144 135.56C119.144 131.848 118.408 128.968 116.936 126.92C115.528 124.872 113.512 123.848 110.888 123.848C108.392 123.848 106.376 124.904 104.84 127.016C103.368 129.064 102.632 131.912 102.632 135.56C102.632 139.208 103.368 142.088 104.84 144.2C106.376 146.248 108.392 147.272 110.888 147.272ZM154.952 185.672C150.152 185.672 146.28 183.976 143.336 180.584C140.392 177.192 138.919 172.744 138.919 167.24C138.919 161.736 140.392 157.288 143.336 153.896C146.28 150.504 150.152 148.808 154.952 148.808C159.752 148.808 163.624 150.504 166.568 153.896C169.576 157.288 171.079 161.736 171.079 167.24C171.079 172.744 169.576 177.192 166.568 180.584C163.624 183.976 159.752 185.672 154.952 185.672ZM154.952 178.952C157.512 178.952 159.528 177.928 161 175.88C162.472 173.768 163.208 170.888 163.208 167.24C163.208 163.592 162.472 160.744 161 158.696C159.528 156.584 157.512 155.528 154.952 155.528C152.392 155.528 150.376 156.552 148.904 158.6C147.432 160.648 146.695 163.528 146.695 167.24C146.695 170.952 147.432 173.832 148.904 175.88C150.376 177.928 152.392 178.952 154.952 178.952Z" fill="#AEBFCF"/>
<path d="M284.456 199.4V203.576L271.4 233H264.728L277.352 204.68H264.152V210.392H258.344V199.4H284.456Z" fill="#AEBFCF"/>
<path d="M296.037 217.496C293.637 217.496 291.701 216.648 290.229 214.952C288.757 213.256 288.021 211.032 288.021 208.28C288.021 205.528 288.757 203.304 290.229 201.608C291.701 199.912 293.637 199.064 296.037 199.064C298.437 199.064 300.373 199.912 301.845 201.608C303.349 203.272 304.101 205.496 304.101 208.28C304.101 211.064 303.349 213.304 301.845 215C300.373 216.664 298.437 217.496 296.037 217.496ZM316.197 199.4H320.901L297.957 233H293.253L316.197 199.4ZM296.037 214.136C297.349 214.136 298.357 213.624 299.061 212.6C299.797 211.576 300.165 210.136 300.165 208.28C300.165 206.424 299.797 204.984 299.061 203.96C298.357 202.936 297.349 202.424 296.037 202.424C294.789 202.424 293.781 202.952 293.013 204.008C292.277 205.032 291.909 206.456 291.909 208.28C291.909 210.104 292.277 211.544 293.013 212.6C293.781 213.624 294.789 214.136 296.037 214.136ZM318.069 233.336C315.669 233.336 313.733 232.488 312.261 230.792C310.789 229.096 310.053 226.872 310.053 224.12C310.053 221.368 310.789 219.144 312.261 217.448C313.733 215.752 315.669 214.904 318.069 214.904C320.469 214.904 322.405 215.752 323.877 217.448C325.381 219.144 326.133 221.368 326.133 224.12C326.133 226.872 325.381 229.096 323.877 230.792C322.405 232.488 320.469 233.336 318.069 233.336ZM318.069 229.976C319.349 229.976 320.357 229.464 321.093 228.44C321.829 227.384 322.197 225.944 322.197 224.12C322.197 222.296 321.829 220.872 321.093 219.848C320.357 218.792 319.349 218.264 318.069 218.264C316.789 218.264 315.781 218.776 315.045 219.8C314.309 220.824 313.941 222.264 313.941 224.12C313.941 225.976 314.309 227.416 315.045 228.44C315.781 229.464 316.789 229.976 318.069 229.976Z" fill="#AEBFCF"/>
</svg>
