<svg width="664" height="872" viewBox="0 0 664 872" fill="none" xmlns="http://www.w3.org/2000/svg">
<path d="M301.94 167.341L280.285 161.201V148.685H335.262V161.201L314.572 167.341V465.364H302.902L203.413 196.657V446.471L225.068 452.847V465.364H170.09V452.847L190.782 446.471V167.341L170.09 161.201V148.685H218.932L301.94 368.519V167.341Z" fill="#090B0C"/>
<path d="M493.062 461.788L420.484 461.746L420.483 454.642L441.436 448.686C441.436 448.686 441.526 401.091 441.524 378.688C441.519 309.807 441.366 166.304 441.366 166.304L410.842 166.184V159.466L472.199 144.983L472.187 448.702L493.062 454.546V461.788Z" fill="#090B0C"/>
<path d="M365.232 227.684C356.661 227.684 349.713 213.788 349.713 196.648C349.713 179.507 356.661 165.611 365.232 165.611C373.803 165.611 380.751 179.507 380.751 196.648C380.751 213.788 373.803 227.684 365.232 227.684ZM365.168 161.232C345.608 161.232 329.752 177.088 329.752 196.648C329.752 216.207 345.608 232.063 365.168 232.063C384.727 232.063 400.583 216.207 400.583 196.648C400.583 177.088 384.727 161.232 365.168 161.232Z" fill="#090B0C"/>
<path d="M392.225 254.417H338.427V246.014H392.225V254.417Z" fill="#090B0C"/>
<path d="M539.46 514.816H123.692V506.413H539.46V514.816Z" fill="#090B0C"/>
<path d="M152.54 628.893C156.228 628.893 158.26 626.616 158.26 621.68V621.49C158.26 617.029 156.614 614.276 152.145 614.276H139.662V628.893H152.54ZM149.3 602.128C152.252 602.128 155.177 600.04 155.177 595.104V594.914C155.177 590.548 153.474 588.081 150.09 588.081H139.662V602.128H149.3ZM126.225 575.268H151.908C158.229 575.268 163.208 577.356 166.368 581.152C168.897 584.189 170.161 587.89 170.161 592.446V592.636C170.161 600.134 166.842 604.31 162.892 606.968C169.292 609.91 173.242 614.372 173.242 623.293V623.484C173.242 635.632 165.025 641.706 152.54 641.706H126.225V575.268Z" fill="#090B0C"/>
<path d="M193.471 575.267H233.747V588.27H205.631V601.748H229.477V614.751H205.631V628.703H234.222V641.706H193.471V575.267Z" fill="#090B0C"/>
<path d="M290.049 611.983L282.789 594.265L275.53 611.983H290.049ZM276.241 574.793H289.718L318.192 641.706H302.912L296.837 626.805H268.742L262.668 641.706H247.766L276.241 574.793Z" fill="#090B0C"/>
<path d="M329.35 613.232V575.267H343.966V612.852C343.966 623.672 349.376 629.272 358.298 629.272C367.22 629.272 372.63 623.863 372.63 613.327V575.267H387.247V612.758C387.247 632.879 375.952 642.75 358.108 642.75C340.264 642.75 329.35 632.784 329.35 613.232Z" fill="#090B0C"/>
<path d="M427.414 585.325H407.198V575.267H462.247V585.325H440.435V641.706H427.414V585.325Z" fill="#090B0C"/>
<path d="M498.484 607.052L473.887 575.267H489.628L505.478 596.079L521.614 575.267H536.926L512.692 606.767V641.707H498.484V607.052Z" fill="#090B0C"/>
<path d="M165.635 721.461L167.739 718.971C170.875 721.805 173.882 723.223 178.049 723.223C182.086 723.223 184.749 721.075 184.749 718.025C184.749 715.233 183.246 713.644 176.931 712.313C170.017 710.809 166.838 708.576 166.838 703.551C166.838 698.825 171.005 695.347 176.717 695.347C181.098 695.347 184.234 696.592 187.283 699.04L185.307 701.66C182.515 699.384 179.723 698.396 176.631 698.396C172.722 698.396 170.231 700.544 170.231 703.336C170.231 706.171 171.778 707.76 178.393 709.177C185.093 710.637 188.186 713.085 188.186 717.768C188.186 722.923 183.89 726.272 177.921 726.272C173.151 726.272 169.243 724.683 165.635 721.461Z" fill="#090B0C"/>
<path d="M203.905 698.911H193.81V695.777H217.434V698.911H207.341V725.842H203.905V698.911Z" fill="#090B0C"/>
<path d="M234.701 713.945L222.203 695.776H226.325L236.463 710.81L246.685 695.776H250.637L238.137 713.902V725.842H234.701V713.945Z" fill="#090B0C"/>
<path d="M257.55 695.776H260.943V722.707H277.866V725.843H257.55V695.776Z" fill="#090B0C"/>
<path d="M285.64 695.776H307.374V698.868H289.033V709.135H305.441V712.227H289.033V722.751H307.589V725.843H285.64V695.776Z" fill="#090B0C"/>
<path d="M344.311 702.219C344.311 699.813 342.507 698.052 340.059 698.052C337.352 698.052 335.506 699.943 335.506 702.477C335.506 704.237 336.235 705.569 338.512 708.017C342.335 706.729 344.311 704.881 344.311 702.219ZM345.212 719.485L337.18 711.196C333.186 712.656 331.424 715.105 331.424 717.725C331.424 720.947 334.003 723.395 337.696 723.395C340.531 723.395 343.022 721.891 345.212 719.485ZM347.274 721.591C344.526 724.555 341.347 726.272 337.438 726.272C332.026 726.272 327.988 722.879 327.988 717.768C327.988 713.773 330.652 710.895 335.247 709.092C333.186 706.685 332.242 704.839 332.242 702.391C332.242 698.439 335.42 695.26 340.187 695.26C344.398 695.26 347.49 698.309 347.49 702.132C347.49 705.956 344.783 708.404 340.402 709.951L347.274 716.951C348.606 715.019 349.808 712.743 350.883 710.251L353.675 711.54C352.343 714.375 350.968 716.951 349.336 719.1L354.576 724.468L351.999 726.444L347.274 721.591Z" fill="#090B0C"/>
<path d="M374.118 721.461L376.222 718.971C379.358 721.805 382.365 723.223 386.531 723.223C390.569 723.223 393.231 721.075 393.231 718.025C393.231 715.233 391.729 713.644 385.414 712.313C378.499 710.809 375.321 708.576 375.321 703.551C375.321 698.825 379.487 695.347 385.199 695.347C389.581 695.347 392.717 696.592 395.766 699.04L393.79 701.66C390.998 699.384 388.206 698.396 385.114 698.396C381.205 698.396 378.714 700.544 378.714 703.336C378.714 706.171 380.261 707.76 386.875 709.177C393.575 710.637 396.669 713.085 396.669 717.768C396.669 722.923 392.373 726.272 386.403 726.272C381.634 726.272 377.726 724.683 374.118 721.461Z" fill="#090B0C"/>
<path d="M430.9 710.81C430.9 703.98 425.917 698.396 419.045 698.396C412.173 698.396 407.276 703.894 407.276 710.81C407.276 717.639 412.259 723.223 419.132 723.223C426.004 723.223 430.9 717.724 430.9 710.81ZM403.755 710.81C403.755 702.52 409.983 695.26 419.132 695.26C428.28 695.26 434.423 702.434 434.423 710.81C434.423 719.099 428.195 726.358 419.045 726.358C409.897 726.358 403.755 719.184 403.755 710.81Z" fill="#090B0C"/>
<path d="M442.625 713.257V695.776H446.018V713.043C446.018 719.529 449.454 723.18 455.21 723.18C460.75 723.18 464.273 719.829 464.273 713.257V695.776H467.666V713C467.666 721.763 462.641 726.315 455.123 726.315C447.693 726.315 442.625 721.763 442.625 713.257Z" fill="#090B0C"/>
<path d="M477.2 695.776H480.593V722.707H497.516V725.843H477.2V695.776Z" fill="#090B0C"/>
<path d="M588.363 76.2619H581.697H81.4552H74.7886V82.9286V788.498V795.165H81.4552H581.697H588.363V788.498V82.9286V76.2619ZM581.697 788.498H81.4552V82.9286H581.697V788.498Z" fill="#090C0D"/>
<path d="M663.152 0H643.152H20H0V20V851.427V871.427H20H643.152H663.152V851.427V20V0ZM643.152 851.427H20V20H643.152V851.427Z" fill="#090C0D"/>
</svg>
