<?xml version="1.0" encoding="UTF-8"?>

<svg version="1.1" xmlns="http://www.w3.org/2000/svg" xmlns:xlink="http://www.w3.org/1999/xlink">

	<symbol viewBox="0 0 85 111" id="logo" xmlns="http://www.w3.org/2000/svg">
		<path d="M38.7014 21.3155L35.9258 20.5334V18.9391H42.9725V20.5334L40.3205 21.3155V59.2768H38.8248L26.0726 25.0497V56.8702L28.8482 57.6824V59.2768H21.8015V57.6824L24.4537 56.8702V21.3155L21.8015 20.5334V18.9391H28.0617L38.7014 46.9409V21.3155Z"/>
		<path d="M63.1986 58.8214L53.8959 58.816L53.8957 57.9111L56.5815 57.1524C56.5815 57.1524 56.5929 51.0899 56.5927 48.2364C56.592 39.4624 56.5724 21.1835 56.5724 21.1835L52.66 21.1682V20.3124L60.5245 18.4676L60.5229 57.1545L63.1986 57.8989V58.8214Z"/>
		<path d="M46.8139 29.0018C45.7153 29.0018 44.8248 27.2318 44.8248 25.0485C44.8248 22.8651 45.7153 21.0951 46.8139 21.0951C47.9124 21.0951 48.803 22.8651 48.803 25.0485C48.803 27.2318 47.9124 29.0018 46.8139 29.0018ZM46.8057 20.5373C44.2986 20.5373 42.2662 22.557 42.2662 25.0485C42.2662 27.5398 44.2986 29.5595 46.8057 29.5595C49.3126 29.5595 51.345 27.5398 51.345 25.0485C51.345 22.557 49.3126 20.5373 46.8057 20.5373Z"/>
		<path d="M50.2738 32.407H43.3781V31.3367H50.2738V32.407Z"/>
		<path d="M69.1457 65.5759H15.8543V64.5056H69.1457V65.5759Z"/>
		<path d="M19.5519 80.1067C20.0246 80.1067 20.2851 79.8166 20.2851 79.1879V79.1638C20.2851 78.5955 20.0742 78.2448 19.5013 78.2448H17.9013V80.1067H19.5519ZM19.1366 76.6974C19.515 76.6974 19.8899 76.4314 19.8899 75.8027V75.7786C19.8899 75.2224 19.6717 74.9082 19.238 74.9082H17.9013V76.6974H19.1366ZM16.179 73.276H19.4709C20.2811 73.276 20.9193 73.542 21.3243 74.0255C21.6485 74.4124 21.8105 74.8839 21.8105 75.4642V75.4883C21.8105 76.4435 21.3852 76.9754 20.8788 77.3139C21.6991 77.6887 22.2055 78.257 22.2055 79.3934V79.4177C22.2055 80.9651 21.1522 81.7388 19.5519 81.7388H16.179V73.276Z"/>
		<path d="M24.7983 73.276H29.9608V74.9322H26.357V76.6491H29.4134V78.3054H26.357V80.0825H30.0216V81.7388H24.7983V73.276Z"/>
		<path d="M37.1773 77.9528L36.2467 75.6958L35.3163 77.9528H37.1773ZM35.4074 73.2156H37.1349L40.7845 81.7388H38.8259L38.0473 79.8407H34.4463L33.6676 81.7388H31.7576L35.4074 73.2156Z"/>
		<path d="M42.2146 78.1119V73.276H44.088V78.0635C44.088 79.4417 44.7816 80.155 45.9251 80.155C47.0687 80.155 47.7621 79.466 47.7621 78.124V73.276H49.6357V78.0514C49.6357 80.6144 48.188 81.8717 45.9008 81.8717C43.6136 81.8717 42.2146 80.6024 42.2146 78.1119Z"/>
		<path d="M54.784 74.5571H52.1928V73.276H59.2488V74.5571H56.4531V81.7388H54.784V74.5571Z"/>
		<path d="M63.8936 77.3247L60.7408 73.2759H62.7585L64.79 75.9269L66.8582 73.2759H68.8208L65.7147 77.2883V81.7389H63.8936V77.3247Z"/>
		<path d="M21.2304 91.8978L21.5001 91.5806C21.9021 91.9416 22.2874 92.1222 22.8215 92.1222C23.339 92.1222 23.6803 91.8486 23.6803 91.4602C23.6803 91.1045 23.4877 90.9021 22.6783 90.7326C21.792 90.541 21.3846 90.2565 21.3846 89.6164C21.3846 89.0145 21.9186 88.5714 22.6508 88.5714C23.2124 88.5714 23.6143 88.73 24.0052 89.0419L23.7519 89.3756C23.394 89.0857 23.0362 88.9598 22.6398 88.9598C22.1388 88.9598 21.8195 89.2334 21.8195 89.5891C21.8195 89.9501 22.0178 90.1526 22.8656 90.3331C23.7244 90.5191 24.1209 90.8309 24.1209 91.4274C24.1209 92.084 23.5702 92.5106 22.8051 92.5106C22.1938 92.5106 21.6929 92.3081 21.2304 91.8978Z"/>
		<path d="M26.1357 89.0254H24.8418V88.6262H27.8698V89.0254H26.5761V92.4558H26.1357V89.0254Z"/>
		<path d="M30.083 90.9404L28.481 88.626H29.0094L30.3088 90.5411L31.6191 88.626H32.1256L30.5234 90.935V92.4558H30.083V90.9404Z"/>
		<path d="M33.0117 88.6261H33.4466V92.0564H35.6157V92.4559H33.0117V88.6261Z"/>
		<path d="M36.6121 88.6261H39.3979V89.0199H37.047V90.3277H39.1501V90.7215H37.047V92.0621H39.4254V92.4559H36.6121V88.6261Z"/>
		<path d="M44.1323 89.4467C44.1323 89.1403 43.9011 88.916 43.5873 88.916C43.2404 88.916 43.0037 89.1568 43.0037 89.4797C43.0037 89.7039 43.0972 89.8735 43.3891 90.1853C43.879 90.0213 44.1323 89.7859 44.1323 89.4467ZM44.2479 91.6461L43.2183 90.5902C42.7063 90.7762 42.4806 91.0882 42.4806 91.4219C42.4806 91.8323 42.8111 92.1441 43.2845 92.1441C43.6478 92.1441 43.9671 91.9525 44.2479 91.6461ZM44.5121 91.9143C44.1598 92.2918 43.7524 92.5106 43.2513 92.5106C42.5576 92.5106 42.0402 92.0783 42.0402 91.4274C42.0402 90.9185 42.3816 90.5519 42.9705 90.3222C42.7063 90.0157 42.5853 89.7805 42.5853 89.4686C42.5853 88.9652 42.9928 88.5604 43.6037 88.5604C44.1434 88.5604 44.5398 88.9488 44.5398 89.4357C44.5398 89.9228 44.1928 90.2346 43.6312 90.4316L44.5121 91.3233C44.6828 91.0772 44.8369 90.7872 44.9747 90.4698L45.3326 90.6341C45.1618 90.9951 44.9856 91.3233 44.7764 91.597L45.4481 92.2808L45.1177 92.5325L44.5121 91.9143Z"/>
		<path d="M47.9529 91.8978L48.2225 91.5806C48.6245 91.9416 49.0099 92.1222 49.5439 92.1222C50.0614 92.1222 50.4027 91.8486 50.4027 91.4602C50.4027 91.1045 50.2101 90.9021 49.4007 90.7326C48.5144 90.541 48.107 90.2565 48.107 89.6164C48.107 89.0145 48.6411 88.5714 49.3732 88.5714C49.9348 88.5714 50.3368 88.73 50.7276 89.0419L50.4743 89.3756C50.1165 89.0857 49.7586 88.9598 49.3623 88.9598C48.8612 88.9598 48.542 89.2334 48.542 89.5891C48.542 89.9501 48.7402 90.1526 49.588 90.3331C50.4468 90.5191 50.8433 90.8309 50.8433 91.4274C50.8433 92.084 50.2927 92.5106 49.5275 92.5106C48.9162 92.5106 48.4153 92.3081 47.9529 91.8978Z"/>
		<path d="M55.2309 90.541C55.2309 89.6711 54.5923 88.9598 53.7114 88.9598C52.8306 88.9598 52.2029 89.6601 52.2029 90.541C52.2029 91.4109 52.8416 92.1222 53.7226 92.1222C54.6034 92.1222 55.2309 91.4218 55.2309 90.541ZM51.7516 90.541C51.7516 89.4851 52.5498 88.5604 53.7226 88.5604C54.8951 88.5604 55.6824 89.4741 55.6824 90.541C55.6824 91.5969 54.8842 92.5215 53.7114 92.5215C52.5389 92.5215 51.7516 91.6078 51.7516 90.541Z"/>
		<path d="M56.7338 90.8528V88.6261H57.1687V90.8255C57.1687 91.6517 57.6091 92.1167 58.3469 92.1167C59.057 92.1167 59.5085 91.6899 59.5085 90.8528V88.6261H59.9435V90.82C59.9435 91.9362 59.2993 92.516 58.3358 92.516C57.3834 92.516 56.7338 91.9362 56.7338 90.8528Z"/>
		<path d="M61.1655 88.6261H61.6004V92.0564H63.7695V92.4559H61.1655V88.6261Z"/>
		<path d="M75.4139 9.714H74.5594H10.4406H9.5861V10.5632V100.437V101.286H10.4406H74.5594H75.4139V100.437V10.5632V9.714ZM74.5594 100.437H10.4406V10.5632H74.5594V100.437Z"/>
		<path d="M85 0H82.4365H2.56351H0V2.54755V108.452V111H2.56351H82.4365H85V108.452V2.54755V0ZM82.4365 108.452H2.56351V2.54755H82.4365V108.452Z"/>
	</symbol>

	<symbol viewBox="0 0 16 16" id="instagram" xmlns="http://www.w3.org/2000/svg">
		<path fill-rule="evenodd" clip-rule="evenodd" d="M15.952 11.2984C15.9129 12.15 15.7778 12.7314 15.5796 13.2407C15.3751 13.767 15.1013 14.2132 14.6569 14.6577C14.2124 15.1022 13.7662 15.376 13.24 15.5804C12.7307 15.7778 12.1493 15.9138 11.2978 15.952C10.4444 15.9911 10.1724 16 8 16C5.82667 16 5.55467 15.9911 4.70133 15.952C3.84978 15.9138 3.26844 15.7778 2.75911 15.5804C2.23289 15.376 1.78756 15.1022 1.34222 14.6577C0.897778 14.2132 0.624 13.767 0.419556 13.2407C0.222222 12.7314 0.0862222 12.15 0.048 11.2984C0.00888889 10.445 0 10.173 0 7.99956C0 5.82699 0.00888889 5.55498 0.048 4.70159C0.0862222 3.84999 0.222222 3.26863 0.419556 2.75926C0.624 2.23301 0.897778 1.78677 1.34222 1.3423C1.78756 0.897828 2.23289 0.624035 2.75911 0.419579C3.26844 0.222235 3.84978 0.086227 4.70133 0.0480027C5.55467 0.00888938 5.82667 0 8 0C10.1724 0 10.4444 0.00888938 11.2978 0.0480027C12.1493 0.086227 12.7307 0.222235 13.24 0.419579C13.7662 0.624035 14.2124 0.897828 14.6569 1.3423C15.1013 1.78677 15.3751 2.23301 15.5796 2.75926C15.7778 3.26863 15.9129 3.84999 15.952 4.70159C15.9902 5.55498 16 5.82699 16 7.99956C16 10.173 15.9902 10.445 15.952 11.2984ZM14.512 4.76738C14.4764 3.98689 14.3458 3.56375 14.2364 3.28196C14.0907 2.90861 13.9173 2.64192 13.6373 2.36191C13.3582 2.08189 13.0916 1.90855 12.7182 1.76276C12.4364 1.65343 12.0124 1.52364 11.232 1.48808C10.3884 1.44897 10.136 1.44097 8 1.44097C5.86311 1.44097 5.61067 1.44897 4.76711 1.48808C3.98667 1.52364 3.56356 1.65343 3.28178 1.76276C2.90844 1.90855 2.64178 2.08189 2.36178 2.36191C2.08178 2.64192 1.90844 2.90861 1.76356 3.28196C1.65333 3.56375 1.52356 3.98689 1.488 4.76738C1.44889 5.61098 1.44089 5.86344 1.44089 7.99956C1.44089 10.1366 1.44889 10.389 1.488 11.2326C1.52356 12.0131 1.65333 12.4362 1.76356 12.718C1.90844 13.0914 2.08178 13.3581 2.36178 13.6381C2.64178 13.9181 2.90844 14.0914 3.28178 14.2363C3.56356 14.3466 3.98667 14.4764 4.76711 14.5119C5.61067 14.551 5.86311 14.559 8 14.559C10.136 14.559 10.3884 14.551 11.232 14.5119C12.0124 14.4764 12.4364 14.3466 12.7182 14.2363C13.0916 14.0914 13.3582 13.9181 13.6373 13.6381C13.9173 13.3581 14.0907 13.0914 14.2364 12.718C14.3458 12.4362 14.4764 12.0131 14.512 11.2326C14.5502 10.389 14.5582 10.1366 14.5582 7.99956C14.5582 5.86344 14.5502 5.61098 14.512 4.76738ZM12.2702 4.68915C11.7396 4.68915 11.3102 4.25979 11.3102 3.7291C11.3102 3.19929 11.7396 2.76904 12.2702 2.76904C12.8 2.76904 13.2302 3.19929 13.2302 3.7291C13.2302 4.25979 12.8 4.68915 12.2702 4.68915ZM8 12.1082C5.73067 12.1082 3.89156 10.269 3.89156 7.99956C3.89156 5.73098 5.73067 3.89177 8 3.89177C10.2684 3.89177 12.1076 5.73098 12.1076 7.99956C12.1076 10.269 10.2684 12.1082 8 12.1082ZM8 5.33274C6.52711 5.33274 5.33333 6.52747 5.33333 7.99956C5.33333 9.47253 6.52711 10.6673 8 10.6673C9.47289 10.6673 10.6667 9.47253 10.6667 7.99956C10.6667 6.52747 9.47289 5.33274 8 5.33274Z"/>
	</symbol>

	<symbol viewBox="0 0 20 14" id="youtube" xmlns="http://www.w3.org/2000/svg">
		<path fill-rule="evenodd" clip-rule="evenodd" d="M7.935 9.58174L7.93437 3.98907L13.3381 6.79505L7.935 9.58174ZM19.8 3.01995C19.8 3.01995 19.6044 1.64838 19.005 1.04439C18.2444 0.251304 17.3919 0.247564 17.0012 0.201534C14.2025 -2.92063e-06 10.0044 0 10.0044 0H9.99563C9.99563 0 5.7975 -2.92063e-06 2.99875 0.201534C2.6075 0.247564 1.75563 0.251304 0.994377 1.04439C0.395002 1.64838 0.199998 3.01995 0.199998 3.01995C0.199998 3.01995 0 4.631 0 6.24144V7.75173C0 9.36278 0.199998 10.9732 0.199998 10.9732C0.199998 10.9732 0.395002 12.3448 0.994377 12.9488C1.75563 13.7419 2.755 13.717 3.2 13.7997C4.8 13.9527 10 14 10 14C10 14 14.2025 13.9938 17.0012 13.7922C17.3919 13.7456 18.2444 13.7419 19.005 12.9488C19.6044 12.3448 19.8 10.9732 19.8 10.9732C19.8 10.9732 20 9.36278 20 7.75173V6.24144C20 4.631 19.8 3.01995 19.8 3.01995Z"/>
	</symbol>

	<symbol viewBox="0 0 8 16" id="facebook" xmlns="http://www.w3.org/2000/svg">
		<path fill-rule="evenodd" clip-rule="evenodd" d="M0.5 5.29158H1.99962V4.54102V3.80553V3.68217C1.99962 2.97493 2.01626 1.88064 2.48287 1.20353C2.97486 0.486875 3.64983 0 4.81153 0C6.70248 0 7.5 0.296645 7.5 0.296645L7.12531 2.74797C7.12531 2.74797 6.50025 2.54926 5.91633 2.54926C5.33329 2.54926 4.81153 2.77905 4.81153 3.42225V3.68217V4.54102V5.29158H7.20323L7.03602 7.68452H4.81153V16H1.99962V7.68452H0.5V5.29158Z"/>
	</symbol>

	<symbol viewBox="0 0 18 14" id="twitter" xmlns="http://www.w3.org/2000/svg">
		<path fill-rule="evenodd" clip-rule="evenodd" d="M18 1.65735C17.3386 1.93846 16.6265 2.12857 15.8796 2.21351C16.6424 1.77667 17.2277 1.084 17.5034 0.258868C16.7892 0.663347 16 0.957601 15.1569 1.11535C14.4849 0.428746 13.5246 0 12.4617 0C10.4237 0 8.7702 1.58252 8.7702 3.53413C8.7702 3.81119 8.8019 4.08018 8.86529 4.33904C5.79609 4.19141 3.07554 2.78584 1.25304 0.645142C0.935023 1.16894 0.753296 1.77667 0.753296 2.42384C0.753296 3.64941 1.40518 4.73139 2.3962 5.3654C1.79187 5.34821 1.22134 5.18744 0.72266 4.92452V4.968C0.72266 6.68097 1.99577 8.10979 3.68621 8.43337C3.37665 8.51629 3.05018 8.55774 2.71315 8.55774C2.47544 8.55774 2.243 8.53651 2.01796 8.49505C2.48811 9.89859 3.85102 10.9209 5.46751 10.9482C4.2039 11.8967 2.61067 12.462 0.881138 12.462C0.583198 12.462 0.288431 12.4458 0 12.4134C1.63444 13.4145 3.57633 14 5.66085 14C12.4543 14 16.168 8.61538 16.168 3.94467C16.168 3.79097 16.1648 3.63727 16.1585 3.4866C16.8801 2.98808 17.5066 2.3662 18 1.65735Z"/>
	</symbol>

	<symbol viewBox="0 0 15 9" id="arrow-bottom" xmlns="http://www.w3.org/2000/svg">
		<path fill-rule="evenodd" clip-rule="evenodd" d="M0.292908 1.70712L1.70712 0.292908L7.50001 6.0858L13.2929 0.292908L14.7071 1.70712L7.50001 8.91423L0.292908 1.70712Z"/>
	</symbol>

	<symbol viewBox="0 0 7 7" id="link" xmlns="http://www.w3.org/2000/svg">
		<path fill-rule="evenodd" clip-rule="evenodd" d="M1.00004 0H7.00004V6H6.00004V1.70711L1.35359 6.35355L0.646484 5.64645L5.29293 1H1.00004V0Z"/>
	</symbol>

	<symbol viewBox="0 0 20 20" id="close" xmlns="http://www.w3.org/2000/svg">
		<path fill-rule="evenodd" clip-rule="evenodd" d="M9.29293 10L0.646484 1.35359L1.35359 0.646484L10 9.29293L18.6465 0.646484L19.3536 1.35359L10.7071 10L19.3536 18.6465L18.6465 19.3536L10 10.7071L1.35359 19.3536L0.646484 18.6465L9.29293 10Z"/>
	</symbol>

	<symbol viewBox="0 0 21 12" id="faq-arrow" xmlns="http://www.w3.org/2000/svg">
		<path fill-rule="evenodd" clip-rule="evenodd" d="M0.646484 1.35359L1.35359 0.646484L10.5 9.79293L19.6465 0.646484L20.3536 1.35359L10.5 11.2071L0.646484 1.35359Z"/>
	</symbol>

	<symbol viewBox="0 0 27 11" id="menu-toggle" xmlns="http://www.w3.org/2000/svg">
		<path fill-rule="evenodd" clip-rule="evenodd" d="M27 2H0.5V0H27V2ZM0.5 9H27V11H0.5V9Z"/>
	</symbol>

	<symbol viewBox="0 0 21 21" id="search" xmlns="http://www.w3.org/2000/svg">
		<path fill-rule="evenodd" clip-rule="evenodd" d="M9 1.5C4.85786 1.5 1.5 4.85786 1.5 9C1.5 13.1421 4.85786 16.5 9 16.5C13.1421 16.5 16.5 13.1421 16.5 9C16.5 4.85786 13.1421 1.5 9 1.5ZM0.5 9C0.5 4.30558 4.30558 0.5 9 0.5C13.6944 0.5 17.5 4.30558 17.5 9C17.5 13.6944 13.6944 17.5 9 17.5C4.30558 17.5 0.5 13.6944 0.5 9Z"/>
		<path fill-rule="evenodd" clip-rule="evenodd" d="M14.2929 14.2929C14.6834 13.9024 15.3166 13.9024 15.7071 14.2929L20.0571 18.6429C20.4476 19.0334 20.4476 19.6666 20.0571 20.0571C19.6666 20.4476 19.0334 20.4476 18.6429 20.0571L14.2929 15.7071C13.9024 15.3166 13.9024 14.6834 14.2929 14.2929Z"/>
	</symbol>

	<symbol viewBox="0 0 22 20" id="wish" xmlns="http://www.w3.org/2000/svg">
		<path d="m6.0508 0.49805c-1.5914 0-3.1188 0.63249-4.2441 1.7578-1.1253 1.1253-1.7578 2.6527-1.7578 4.2441 0 1.5915 0.63249 3.1188 1.7578 4.2441l1.0605 1.0586 7.7793 7.7812a0.50005 0.50005 0 0 0 0.70703 0l7.7793-7.7812 1.0605-1.0586c0.55744-0.55718 0.99913-1.2191 1.3008-1.9473 0.30176-0.72816 0.45703-1.5087 0.45703-2.2969 0-0.78813-0.15528-1.5687-0.45703-2.2969-0.30165-0.72818-0.74334-1.3901-1.3008-1.9473-0.55716-0.55747-1.2192-0.99909-1.9473-1.3008-0.72816-0.30169-1.5087-0.45703-2.2969-0.45703-0.78818-1e-8 -1.5668 0.15533-2.2949 0.45703-0.72818 0.3017-1.3901 0.74336-1.9473 1.3008l-0.70703 0.70703-0.70703-0.70703c-1.1253-1.1253-2.6507-1.7578-4.2422-1.7578zm0 1c1.3266 0 2.5971 0.52679 3.5352 1.4648l1.0605 1.0605a0.50005 0.50005 0 0 0 0.70703 0l1.0605-1.0605c0.46439-0.46456 1.0162-0.83257 1.623-1.084 0.60672-0.25141 1.2553-0.38086 1.9121-0.38086s1.3072 0.12943 1.9141 0.38086c0.60674 0.25142 1.1588 0.61948 1.623 1.084 0.46456 0.46434 0.83264 1.0163 1.084 1.623 0.25144 0.60676 0.38086 1.2572 0.38086 1.9141 0 0.65684-0.12942 1.3073-0.38086 1.9141-0.25135 0.60674-0.61942 1.1587-1.084 1.623l-1.0605 1.0586-7.4258 7.4277-7.4258-7.4277-1.0605-1.0586c-0.93806-0.93807-1.4648-2.2105-1.4648-3.5371 0-1.3266 0.52678-2.599 1.4648-3.5371 0.93806-0.93806 2.2105-1.4648 3.5371-1.4648z"/>
	</symbol>

	<symbol viewBox="0 0 20 22" id="cart" xmlns="http://www.w3.org/2000/svg">
		<path fill-rule="evenodd" clip-rule="evenodd" d="M3.6 0.7C3.69443 0.574097 3.84262 0.5 4 0.5H16C16.1574 0.5 16.3056 0.574097 16.4 0.7L19.4 4.7C19.4649 4.78655 19.5 4.89181 19.5 5V19C19.5 19.663 19.2366 20.2989 18.7678 20.7678C18.2989 21.2366 17.663 21.5 17 21.5H3C2.33696 21.5 1.70107 21.2366 1.23223 20.7678C0.763392 20.2989 0.5 19.663 0.5 19V5C0.5 4.89181 0.535089 4.78655 0.6 4.7L3.6 0.7ZM4.25 1.5L1.5 5.16667V19C1.5 19.3978 1.65804 19.7794 1.93934 20.0607C2.22064 20.342 2.60218 20.5 3 20.5H17C17.3978 20.5 17.7794 20.342 18.0607 20.0607C18.342 19.7794 18.5 19.3978 18.5 19V5.16667L15.75 1.5H4.25Z"/>
		<path fill-rule="evenodd" clip-rule="evenodd" d="M0.5 5C0.5 4.72386 0.723858 4.5 1 4.5H19C19.2761 4.5 19.5 4.72386 19.5 5C19.5 5.27614 19.2761 5.5 19 5.5H1C0.723858 5.5 0.5 5.27614 0.5 5Z"/>
		<path fill-rule="evenodd" clip-rule="evenodd" d="M6 8.5C6.27614 8.5 6.5 8.72386 6.5 9C6.5 9.92826 6.86875 10.8185 7.52513 11.4749C8.1815 12.1313 9.07174 12.5 10 12.5C10.9283 12.5 11.8185 12.1313 12.4749 11.4749C13.1313 10.8185 13.5 9.92826 13.5 9C13.5 8.72386 13.7239 8.5 14 8.5C14.2761 8.5 14.5 8.72386 14.5 9C14.5 10.1935 14.0259 11.3381 13.182 12.182C12.3381 13.0259 11.1935 13.5 10 13.5C8.80653 13.5 7.66193 13.0259 6.81802 12.182C5.97411 11.3381 5.5 10.1935 5.5 9C5.5 8.72386 5.72386 8.5 6 8.5Z"/>
	</symbol>

	<symbol viewBox="0 0 11 15" id="pagenav-prev" xmlns="http://www.w3.org/2000/svg">
		<path d="M10.1344 1.76877L8.36572 0L0.865723 7.5L8.36572 15L10.1344 13.2312L4.4032 7.5L10.1344 1.76877Z"/>
	</symbol>

	<symbol viewBox="0 0 11 15" id="pagenav-next" xmlns="http://www.w3.org/2000/svg">
		<path d="M0.865566 13.2312L2.63428 15L10.1343 7.5L2.63428 6.55671e-07L0.865565 1.76877L6.5968 7.5L0.865566 13.2312Z"/>
	</symbol>

	<symbol viewBox="0 0 19 2" id="minus" xmlns="http://www.w3.org/2000/svg">
		<path fill-rule="evenodd" clip-rule="evenodd" d="M19 1.5H0V0.5H19V1.5Z"/>
	</symbol>

	<symbol viewBox="0 0 19 19" id="plus" xmlns="http://www.w3.org/2000/svg">
		<path fill-rule="evenodd" clip-rule="evenodd" d="M9 9V0H10V9H19V10H10V19H9V10H0V9H9Z"/>
	</symbol>




</svg>